<?xml version="1.0" standalone="no"?>
<!DOCTYPE svg PUBLIC "-//W3C//DTD SVG 20010904//EN"
 "http://www.w3.org/TR/2001/REC-SVG-20010904/DTD/svg10.dtd">
<svg version="1.0" xmlns="http://www.w3.org/2000/svg"
 width="2560.000000pt" height="447.000000pt" viewBox="0 0 2560.000000 447.000000"
 preserveAspectRatio="xMidYMid meet">

<g transform="translate(0.000000,447.000000) scale(0.100000,-0.100000)"
fill="#000000" stroke="none">
<path d="M2362 4408 c-90 -158 -126 -300 -127 -498 0 -165 16 -254 70 -386 19
-44 174 -323 346 -620 335 -579 376 -656 409 -779 33 -119 39 -338 12 -465
-22 -108 -59 -207 -110 -297 l-36 -62 -32 98 c-18 54 -43 120 -57 147 -14 27
-215 380 -447 784 -232 404 -445 776 -472 826 -49 93 -107 242 -108 279 l-1
20 -15 -20 c-30 -38 -82 -150 -107 -230 -71 -224 -59 -483 31 -702 17 -39 173
-318 348 -620 174 -301 330 -575 345 -608 16 -33 40 -100 55 -150 25 -83 28
-104 28 -265 1 -211 -15 -283 -101 -459 -57 -119 -63 -123 -78 -51 -20 94
-104 252 -466 877 -216 373 -408 712 -426 754 -44 101 -71 211 -85 342 l-12
109 -34 -7 c-50 -9 -260 -80 -359 -121 -338 -140 -619 -342 -776 -560 -48 -67
-112 -203 -134 -284 -24 -90 -23 -263 1 -350 240 -856 1893 -1340 3331 -975
617 156 1076 450 1261 807 113 219 116 465 10 676 -160 318 -569 597 -1111
760 l-129 39 -13 85 c-15 109 -37 184 -78 273 -17 39 -203 369 -412 735 -209
366 -390 684 -402 708 -12 23 -37 88 -55 143 l-34 100 -30 -53z"/>
<path d="M6430 3246 c-408 -65 -656 -247 -749 -548 -46 -151 -46 -370 0 -523
84 -282 330 -493 764 -655 150 -56 382 -170 482 -236 98 -65 145 -116 186
-204 28 -58 31 -75 32 -160 0 -88 -3 -101 -33 -162 -70 -142 -213 -213 -478
-239 -242 -23 -601 31 -843 126 -51 20 -94 35 -96 33 -18 -19 -66 -246 -79
-380 l-6 -58 37 -18 c113 -57 339 -115 538 -138 192 -22 557 -15 695 14 268
56 480 172 606 330 55 69 116 194 138 282 24 93 31 251 17 351 -52 355 -290
581 -856 814 -245 100 -334 143 -420 200 -177 117 -247 251 -223 425 39 287
365 388 935 289 62 -11 165 -35 230 -53 65 -19 119 -33 120 -32 9 8 56 209 68
291 23 153 31 138 -92 173 -241 68 -352 83 -643 88 -172 2 -270 -1 -330 -10z"/>
<path d="M13320 3223 c-62 -7 -195 -32 -248 -48 l-52 -16 0 -1232 c0 -1183 1
-1236 20 -1327 53 -259 209 -424 465 -491 56 -14 125 -23 226 -26 165 -6 272
5 390 43 l76 24 22 168 c12 92 24 182 27 200 3 17 1 32 -3 32 -4 0 -37 -9 -72
-20 -35 -11 -117 -26 -182 -32 -227 -23 -362 23 -435 148 -53 90 -54 102 -54
742 l0 592 365 0 c201 0 365 3 365 6 0 3 6 60 14 127 8 67 18 157 21 200 l7
77 -386 0 -386 0 0 420 0 420 -72 -2 c-40 0 -89 -3 -108 -5z"/>
<path d="M21210 3223 c-70 -7 -176 -24 -212 -34 l-38 -10 0 -366 0 -365 -45 6
c-407 61 -778 10 -1050 -145 -91 -51 -227 -175 -290 -264 -141 -197 -215 -469
-215 -788 0 -520 195 -905 545 -1073 149 -72 222 -88 420 -88 133 -1 184 3
235 17 148 40 278 128 367 250 l38 51 7 -49 c4 -28 10 -89 13 -138 l7 -87 224
0 224 0 0 1545 0 1545 -97 -2 c-54 0 -114 -3 -133 -5z m-410 -1188 c58 -8 117
-18 133 -21 l27 -6 0 -682 0 -683 -38 -26 c-68 -45 -159 -86 -249 -113 -121
-37 -293 -40 -398 -7 -270 85 -414 346 -415 753 -1 438 179 711 515 785 82 18
297 18 425 0z"/>
<path d="M9020 2473 c-518 -53 -849 -289 -989 -709 -88 -263 -97 -661 -21
-947 88 -331 307 -580 595 -676 127 -42 218 -54 370 -48 150 5 249 31 350 92
63 38 161 128 198 182 12 18 25 33 28 33 4 0 10 -46 13 -102 4 -57 9 -115 12
-131 l6 -27 224 0 224 0 0 1104 0 1104 -62 21 c-234 77 -707 129 -948 104z
m513 -437 c16 -8 17 -50 17 -695 l0 -688 -22 -20 c-79 -73 -293 -150 -443
-159 -304 -19 -523 151 -607 471 -20 80 -23 113 -23 295 0 237 11 298 79 445
68 144 192 262 331 314 116 44 178 51 420 47 127 -1 238 -6 248 -10z"/>
<path d="M11201 2464 c-143 -15 -382 -55 -526 -88 l-100 -23 -3 -1106 -2
-1107 240 0 240 0 0 939 c0 886 1 940 18 945 58 16 262 28 419 23 142 -4 193
-9 252 -26 181 -53 263 -150 290 -345 7 -50 11 -341 11 -807 l0 -729 240 0
240 0 0 778 c0 924 -3 956 -90 1141 -73 153 -223 275 -418 341 -213 71 -523
96 -811 64z"/>
<path d="M15485 2474 c-16 -2 -66 -9 -110 -15 -255 -33 -488 -141 -646 -298
-209 -210 -311 -506 -311 -906 0 -380 93 -668 287 -883 113 -125 251 -206 445
-259 93 -25 368 -25 460 0 142 38 297 144 371 251 13 20 27 36 30 36 4 0 10
-51 14 -113 3 -61 9 -120 11 -129 5 -16 24 -18 225 -18 l219 0 -2 1108 -3
1107 -80 23 c-117 33 -256 60 -401 77 -128 15 -452 27 -509 19z m493 -437 c9
-6 12 -158 12 -702 l0 -694 -32 -24 c-55 -42 -159 -89 -248 -113 -286 -80
-542 -4 -679 202 -95 142 -133 295 -133 534 0 456 179 718 542 795 71 15 514
17 538 2z"/>
<path d="M17695 2470 c-201 -22 -524 -78 -647 -111 l-38 -10 0 -1104 0 -1105
240 0 240 0 0 939 0 939 23 5 c128 32 550 33 661 2 166 -47 247 -124 293 -281
15 -53 17 -133 21 -831 l3 -773 245 0 244 0 0 768 c0 456 -4 804 -10 857 -46
398 -264 606 -721 685 -141 24 -425 34 -554 20z"/>
<path d="M22725 2469 c-472 -60 -775 -364 -860 -864 -54 -317 -14 -691 99
-931 59 -124 117 -204 209 -290 195 -182 446 -270 802 -281 266 -8 455 18 677
93 l107 37 11 51 c15 69 60 346 60 368 0 15 -11 13 -81 -18 -231 -98 -555
-150 -798 -126 -202 20 -331 72 -436 177 -85 85 -153 224 -179 368 l-7 37 779
0 780 0 6 23 c14 46 19 431 7 522 -47 359 -203 600 -476 735 -192 95 -447 131
-700 99z m374 -424 c118 -39 220 -133 275 -255 28 -63 56 -188 56 -255 l0 -45
-551 0 -550 0 6 48 c39 279 162 445 379 509 109 33 284 32 385 -2z"/>
<path d="M25015 2474 c-16 -2 -79 -9 -140 -15 -122 -12 -370 -59 -455 -86
l-55 -18 -3 -1107 -2 -1108 235 0 235 0 0 944 0 945 48 8 c59 10 582 11 638 1
l42 -8 11 78 c15 101 35 331 29 337 -15 16 -506 40 -583 29z"/>
</g>
</svg>
