<?xml version="1.0" standalone="no"?>
<!DOCTYPE svg PUBLIC "-//W3C//DTD SVG 20010904//EN"
 "http://www.w3.org/TR/2001/REC-SVG-20010904/DTD/svg10.dtd">
<svg version="1.0" xmlns="http://www.w3.org/2000/svg"
 width="2560.000000pt" height="746.000000pt" viewBox="0 0 2560.000000 746.000000"
 preserveAspectRatio="xMidYMid meet">

<g transform="translate(0.000000,746.000000) scale(0.100000,-0.100000)"
fill="#000000" stroke="none">
<path d="M3660 4681 c0 -1724 -3 -2503 -11 -2557 -22 -157 -95 -336 -190 -465
-60 -81 -184 -201 -262 -252 -441 -292 -1029 -207 -1370 198 -159 189 -240
412 -240 665 0 313 130 593 368 793 253 213 610 295 923 212 l52 -13 0 623 0
624 -47 8 c-93 16 -469 9 -588 -11 -497 -81 -921 -294 -1261 -631 -353 -350
-574 -786 -651 -1285 -24 -159 -24 -490 1 -650 76 -492 294 -927 639 -1271
360 -360 794 -573 1322 -650 113 -17 453 -17 560 0 337 51 598 140 852 287
635 368 1050 1014 1123 1743 6 65 10 590 10 1412 l0 1310 58 -40 c455 -309
952 -473 1535 -507 l117 -6 0 614 0 615 -117 6 c-222 10 -425 66 -648 177
-280 140 -489 324 -664 585 -166 248 -264 536 -278 818 l-6 127 -614 0 -613 0
0 -2479z"/>
<path d="M7940 4860 l0 -410 475 0 475 0 0 -1550 0 -1550 480 0 480 0 0 1540
0 1540 388 0 387 0 130 408 c71 224 131 413 133 420 3 9 -296 12 -1472 12
l-1476 0 0 -410z"/>
<path d="M11441 5259 c-251 -49 -420 -317 -356 -564 61 -232 281 -378 519
-344 227 32 396 226 396 454 0 294 -267 511 -559 454z"/>
<path d="M12400 3310 l0 -1960 470 0 470 0 0 508 1 507 140 129 c88 81 144
125 150 119 5 -5 211 -297 457 -649 l448 -639 497 -3 c273 -1 497 1 497 5 0 5
-293 430 -650 947 -358 516 -650 941 -650 945 0 4 263 263 585 575 322 313
585 571 585 573 0 1 -253 3 -562 3 l-563 -1 -467 -460 -468 -461 0 911 0 911
-470 0 -470 0 0 -1960z"/>
<path d="M15760 4860 l0 -410 475 0 475 0 0 -1550 0 -1550 480 0 480 0 0 1540
0 1540 388 0 388 0 129 408 c71 224 131 413 133 420 3 9 -295 12 -1472 12
l-1476 0 0 -410z"/>
<path d="M22470 3310 l0 -1960 465 0 465 0 0 504 0 505 142 130 c79 72 145
131 148 131 3 -1 209 -293 459 -650 l454 -650 493 0 c311 0 494 4 494 10 0 5
-292 432 -650 949 l-650 939 193 189 c105 104 368 360 582 569 215 208 392
382 393 387 2 4 -250 7 -560 7 l-563 0 -460 -460 c-253 -253 -463 -460 -467
-460 -5 0 -8 410 -8 910 l0 910 -465 0 -465 0 0 -1960z"/>
<path d="M20075 4534 c-633 -92 -1139 -497 -1339 -1071 -68 -197 -81 -281 -81
-528 0 -237 12 -323 71 -503 156 -473 547 -864 1021 -1022 218 -72 378 -89
768 -79 191 5 261 11 342 28 636 134 1108 596 1260 1231 37 156 44 436 14 608
-113 663 -616 1176 -1288 1313 -96 20 -143 23 -423 25 -173 1 -328 0 -345 -2z
m404 -845 c153 -39 311 -139 412 -262 61 -76 132 -218 156 -312 25 -104 23
-278 -5 -378 -126 -447 -581 -688 -1021 -541 -352 117 -579 489 -521 851 74
465 520 757 979 642z"/>
<path d="M11070 2680 l0 -1330 465 0 465 0 0 1330 0 1330 -465 0 -465 0 0
-1330z"/>
</g>
</svg>
