<?xml version="1.0" standalone="no"?>
<!DOCTYPE svg PUBLIC "-//W3C//DTD SVG 20010904//EN"
 "http://www.w3.org/TR/2001/REC-SVG-20010904/DTD/svg10.dtd">
<svg version="1.0" xmlns="http://www.w3.org/2000/svg"
 width="767.000000pt" height="263.000000pt" viewBox="0 0 767.000000 263.000000"
 preserveAspectRatio="xMidYMid meet">

<g transform="translate(0.000000,263.000000) scale(0.100000,-0.100000)"
fill="#000000" stroke="none">
<path d="M922 1803 l3 -648 100 0 100 0 5 60 5 60 17 -30 c40 -74 119 -114
224 -115 249 -1 364 164 364 525 0 149 -11 232 -43 325 -45 135 -167 210 -320
198 -100 -8 -162 -43 -221 -123 -14 -18 -15 2 -16 188 l0 207 -110 0 -110 0 2
-647z m519 180 c43 -49 61 -120 66 -276 9 -238 -26 -365 -112 -407 -51 -25
-98 -25 -151 -1 -48 22 -75 62 -99 144 -24 82 -17 377 9 452 34 95 83 127 190
122 62 -3 71 -6 97 -34z"/>
<path d="M140 1295 l0 -1145 213 0 212 0 -3 1145 -2 1145 -210 0 -210 0 0
-1145z"/>
<path d="M2135 2167 c-155 -33 -245 -133 -245 -274 l0 -43 99 0 99 0 7 49 c13
99 69 144 176 143 61 0 109 -20 133 -54 23 -33 24 -541 1 -596 -57 -136 -247
-166 -308 -49 -36 69 -19 177 34 221 17 14 75 40 130 57 l99 32 0 64 c0 57 -2
64 -17 59 -10 -3 -65 -17 -123 -30 -226 -54 -279 -83 -332 -181 -30 -56 -37
-192 -13 -268 33 -106 110 -157 246 -165 122 -7 186 15 257 85 43 43 54 49 58
35 23 -74 73 -104 177 -105 40 0 83 5 95 12 20 11 23 19 20 69 -3 56 -4 57
-35 60 -58 6 -58 4 -63 382 l-5 347 -25 36 c-30 45 -77 77 -145 101 -65 23
-239 30 -320 13z"/>
<path d="M3270 2161 c-72 -23 -121 -53 -148 -91 -13 -16 -27 -30 -32 -30 -6 0
-10 25 -10 55 l0 55 -100 0 -100 0 2 -497 3 -498 102 -3 102 -3 3 363 c3 392
6 412 61 461 78 69 222 61 264 -15 16 -30 18 -68 21 -420 l3 -388 109 0 110 0
0 395 c0 409 -5 472 -42 533 -54 88 -214 127 -348 83z"/>
<path d="M4120 2169 c-155 -26 -249 -119 -296 -290 -25 -91 -25 -367 0 -458
54 -200 175 -291 383 -291 l83 0 0 73 0 72 -75 0 c-72 0 -75 1 -113 38 -48 47
-59 80 -73 224 -9 82 -9 142 -1 227 13 130 32 184 81 231 30 28 38 30 107 30
l75 0 -3 75 -3 75 -55 2 c-30 0 -80 -3 -110 -8z"/>
<path d="M4670 2166 c-184 -40 -273 -158 -301 -403 -10 -89 -10 -132 0 -215
34 -292 156 -418 403 -418 105 0 178 17 241 53 85 50 157 179 171 309 14 119
15 158 6 264 -10 113 -23 166 -61 241 -71 139 -266 211 -459 169z m177 -147
c44 -16 81 -58 98 -110 33 -98 35 -421 4 -516 -28 -88 -77 -123 -171 -123 -73
0 -126 31 -155 90 -68 137 -48 546 30 621 47 45 131 62 194 38z"/>
<path d="M5730 2169 c-53 -15 -110 -59 -144 -111 -17 -26 -34 -47 -38 -47 -5
-1 -8 31 -8 69 l0 70 -110 0 -110 0 2 -497 3 -498 105 0 105 0 5 340 c6 386 7
392 89 450 37 26 51 30 137 33 l95 4 -3 97 -3 96 -45 2 c-25 1 -61 -3 -80 -8z"/>
<path d="M6733 2141 c-26 -16 -33 -29 -39 -66 -9 -61 0 -122 21 -145 22 -24
68 -34 94 -20 32 17 56 59 43 72 -9 9 -15 3 -23 -21 -20 -56 -83 -59 -108 -4
-14 32 -14 115 1 148 21 46 84 47 106 2 7 -15 18 -25 23 -22 6 4 5 13 0 24
-25 46 -73 59 -118 32z"/>
<path d="M6943 2148 c-30 -15 -48 -63 -47 -129 2 -87 43 -130 108 -113 39 9
58 49 59 118 0 79 -8 103 -43 121 -33 17 -46 18 -77 3z m82 -28 c27 -30 28
-149 1 -179 -24 -27 -68 -27 -92 0 -15 16 -19 36 -19 89 0 53 4 73 19 89 24
27 67 27 91 1z"/>
<path d="M6090 2030 l0 -120 58 0 c44 0 63 5 75 18 21 23 22 70 2 92 -14 16
-14 20 2 47 16 29 16 32 0 57 -16 23 -24 26 -77 26 l-60 0 0 -120z m114 94
c34 -33 8 -73 -52 -81 l-42 -6 0 52 0 51 39 0 c23 0 46 -7 55 -16z m4 -110
c50 -35 12 -94 -60 -94 l-38 0 0 55 0 55 38 0 c21 0 48 -7 60 -16z"/>
<path d="M6307 2037 c-41 -125 -41 -127 -27 -127 5 0 13 15 18 33 8 31 10 32
62 32 53 0 55 -1 64 -32 5 -18 13 -33 19 -33 5 0 7 6 4 13 -2 6 -20 60 -38
119 -45 143 -55 142 -102 -5z m76 33 c10 -33 17 -64 17 -70 0 -5 -18 -10 -40
-10 -22 0 -40 5 -40 10 0 21 34 130 40 130 4 0 14 -27 23 -60z"/>
<path d="M6480 2030 c0 -73 4 -120 10 -120 6 0 10 40 10 101 0 122 5 121 70
-10 24 -50 50 -91 57 -91 10 0 13 29 13 121 0 139 -17 155 -19 17 -1 -51 -4
-94 -6 -97 -3 -2 -26 42 -52 97 -34 73 -52 102 -65 102 -16 0 -18 -12 -18
-120z"/>
<path d="M6090 1650 l0 -120 54 0 c82 0 100 19 104 111 3 64 1 78 -18 102 -19
24 -28 27 -81 27 l-59 0 0 -120z m120 90 c16 -16 20 -33 20 -88 0 -81 -14
-100 -79 -109 l-41 -6 0 112 0 111 40 0 c27 0 47 -7 60 -20z"/>
<path d="M6300 1650 l0 -120 68 2 67 1 -55 6 -55 6 -3 53 -3 52 45 0 c25 0 48
5 51 10 4 6 -13 10 -44 10 l-51 0 0 45 0 44 58 4 57 3 -67 2 -68 2 0 -120z"/>
<path d="M6380 1440 c-8 -16 -8 -20 4 -20 9 0 20 9 26 20 8 16 8 20 -4 20 -9
0 -20 -9 -26 -20z"/>
<path d="M6133 1395 c-47 -20 -66 -102 -43 -187 12 -43 34 -58 84 -58 43 0 76
29 76 66 0 33 -33 30 -38 -4 -8 -52 -75 -46 -86 8 -15 77 -1 144 32 154 27 9
52 -3 52 -25 0 -12 7 -19 20 -19 25 0 27 31 3 52 -27 23 -65 28 -100 13z"/>
<path d="M6343 1400 c-43 -18 -57 -56 -54 -158 1 -56 35 -92 86 -92 48 0 80
33 88 91 16 109 -45 190 -120 159z m61 -35 c33 -34 27 -175 -8 -188 -24 -10
-56 5 -61 27 -14 62 -9 140 11 160 19 20 38 20 58 1z"/>
<path d="M6993 1400 c-38 -15 -58 -58 -58 -126 0 -83 24 -118 83 -122 35 -3
46 1 67 24 22 24 25 36 25 100 0 62 -3 77 -22 97 -26 29 -63 39 -95 27z m61
-36 c12 -11 16 -35 16 -87 0 -79 -5 -91 -36 -101 -30 -9 -51 15 -59 68 -15 98
32 168 79 120z"/>
<path d="M6510 1281 c0 -93 3 -120 14 -124 21 -8 26 2 26 55 l0 49 38 -3 c33
-3 37 -6 40 -33 5 -58 12 -75 31 -75 16 0 18 6 14 48 -3 26 -11 53 -18 61 -11
11 -10 19 7 42 18 24 19 32 9 57 -14 34 -34 42 -108 42 l-53 0 0 -119z m115
49 c0 -33 -2 -35 -37 -38 l-38 -3 0 41 0 41 38 -3 c35 -3 37 -5 37 -38z"/>
<path d="M6720 1277 l0 -122 43 -2 c54 -3 104 13 117 37 6 10 10 51 10 90 0
62 -3 74 -25 95 -20 21 -34 25 -85 25 l-60 0 0 -123z m119 79 c7 -8 12 -44 12
-81 0 -77 -11 -95 -57 -95 l-34 0 0 95 0 95 34 0 c18 0 39 -6 45 -14z"/>
<path d="M7160 1275 l0 -125 45 0 c100 0 150 51 107 109 -17 24 -18 29 -6 46
19 26 17 52 -6 75 -16 16 -33 20 -80 20 l-60 0 0 -125z m108 83 c26 -26 -1
-68 -44 -68 -21 0 -24 4 -24 40 0 37 2 40 28 40 15 0 33 -5 40 -12z m6 -104
c35 -34 12 -74 -41 -74 -32 0 -33 1 -33 45 0 43 1 45 29 45 16 0 37 -7 45 -16z"/>
<path d="M7385 1288 c-45 -139 -44 -133 -20 -133 12 0 21 9 25 25 5 22 12 25
52 28 43 3 46 1 56 -27 12 -33 42 -43 41 -13 0 9 -14 64 -32 122 -30 97 -34
105 -59 108 -26 3 -28 -1 -63 -110z m80 14 c7 -28 10 -53 7 -56 -8 -9 -50 -7
-56 2 -6 10 24 116 31 109 2 -3 10 -28 18 -55z"/>
</g>
</svg>
