<?xml version="1.0" standalone="no"?>
<!DOCTYPE svg PUBLIC "-//W3C//DTD SVG 20010904//EN"
 "http://www.w3.org/TR/2001/REC-SVG-20010904/DTD/svg10.dtd">
<svg version="1.0" xmlns="http://www.w3.org/2000/svg"
 width="2100.000000pt" height="516.000000pt" viewBox="0 0 2100.000000 516.000000"
 preserveAspectRatio="xMidYMid meet">

<g transform="translate(0.000000,516.000000) scale(0.100000,-0.100000)"
fill="#000000" stroke="none">
<path d="M18902 5140 c-103 -27 -204 -83 -257 -143 l-45 -49 0 -292 -1 -291
-21 30 c-74 104 -211 192 -332 214 -237 43 -500 -46 -625 -212 -117 -155 -171
-361 -171 -657 0 -222 41 -403 121 -535 50 -83 159 -183 249 -227 128 -63 227
-82 430 -82 203 0 297 18 428 81 147 72 264 219 307 387 31 125 35 227 35
1008 l0 788 -22 -1 c-13 0 -56 -9 -96 -19z m-494 -935 c94 -51 150 -147 177
-299 29 -168 11 -357 -46 -473 -64 -132 -167 -189 -329 -181 -73 3 -95 9 -141
34 -101 57 -158 162 -180 334 -29 226 27 452 136 548 67 59 111 72 230 69 89
-2 106 -6 153 -32z"/>
<path d="M3280 5050 c-1218 -92 -2259 -549 -2838 -1244 -210 -253 -346 -526
-409 -825 -25 -118 -27 -142 -27 -391 0 -290 8 -366 65 -579 231 -870 1068
-1564 2230 -1851 980 -241 2158 -205 3047 94 352 119 597 235 867 411 308 201
573 459 760 740 138 209 258 498 304 736 45 232 52 572 17 784 -45 271 -164
541 -348 791 -97 132 -352 388 -493 495 -593 451 -1352 729 -2250 824 -176 19
-751 28 -925 15z m725 -140 c438 -27 870 -109 1265 -239 219 -73 378 -139 593
-248 159 -81 467 -273 467 -291 0 -8 -197 -83 -305 -116 -322 -99 -699 -113
-1019 -37 -119 29 -253 76 -400 141 -333 147 -571 199 -855 187 -219 -10 -388
-50 -556 -135 -70 -35 -167 -96 -217 -137 -19 -17 -46 -24 -105 -29 -93 -9
-204 -33 -379 -82 -110 -31 -149 -37 -264 -41 -120 -4 -150 -2 -263 22 -183
38 -457 114 -706 197 l-215 71 34 26 c119 92 439 265 667 360 448 187 1016
316 1543 350 183 12 532 12 715 1z m8 -751 c167 -25 332 -76 527 -162 351
-155 642 -216 970 -204 284 10 551 72 843 194 l107 45 33 -25 c52 -40 242
-236 302 -312 156 -197 272 -418 330 -629 38 -138 42 -129 -77 -156 -369 -82
-973 -278 -1327 -430 -52 -22 -98 -40 -102 -40 -5 0 -178 147 -386 328 -1085
940 -1184 1012 -1404 1012 -176 0 -288 -54 -591 -287 -122 -93 -245 -180 -287
-201 -70 -34 -82 -37 -182 -40 -78 -3 -122 0 -162 12 -52 15 -117 57 -117 76
0 16 409 446 493 519 199 171 382 260 607 296 105 16 327 19 423 4z m-2893
-154 c427 -154 808 -251 1040 -262 141 -7 193 1 438 67 80 22 152 40 160 40 7
0 -72 -90 -175 -200 -103 -111 -198 -220 -211 -243 -72 -130 62 -253 312 -288
205 -28 317 17 611 244 430 332 581 350 896 104 315 -244 1375 -1162 1409
-1220 18 -31 25 -56 25 -99 0 -75 -38 -131 -115 -171 -48 -24 -64 -27 -131
-25 -94 4 -90 1 -331 219 -292 265 -357 319 -388 319 -26 0 -40 -15 -40 -43 0
-6 116 -128 259 -271 142 -144 266 -277 276 -296 22 -43 23 -116 2 -156 -21
-41 -90 -102 -141 -125 -46 -21 -148 -25 -192 -9 -15 6 -107 86 -203 178 -239
228 -268 252 -302 252 -34 0 -47 -31 -26 -63 8 -12 96 -112 194 -222 99 -111
182 -209 186 -219 40 -102 -73 -216 -214 -216 -72 0 -96 13 -194 109 -113 110
-213 201 -259 236 -45 34 -86 29 -86 -10 0 -25 18 -46 239 -290 l82 -90 -30
-27 c-67 -60 -217 -64 -359 -8 -75 29 -83 34 -77 54 4 11 14 50 22 86 52 223
-123 462 -357 488 l-65 7 -6 80 c-12 167 -93 272 -247 324 -66 23 -191 28
-236 11 -23 -8 -28 -5 -61 41 -105 147 -363 195 -523 97 l-34 -21 -36 35 c-50
47 -79 63 -142 82 -101 30 -197 15 -290 -45 l-61 -39 -43 29 c-54 37 -234 128
-347 175 -204 84 -551 191 -864 266 -148 36 -305 78 -312 84 -2 1 9 43 22 93
58 210 174 432 330 628 121 152 375 391 404 380 9 -4 95 -35 191 -70z m-655
-1260 c312 -76 524 -137 715 -207 137 -50 415 -181 459 -216 23 -18 23 -21 11
-72 -39 -163 42 -332 196 -405 48 -23 73 -29 136 -29 l77 -1 12 -43 c16 -59
78 -151 125 -189 88 -69 213 -110 297 -98 42 6 44 5 56 -23 22 -52 101 -123
179 -160 81 -38 186 -53 241 -34 30 11 32 9 50 -27 37 -71 108 -138 189 -178
73 -37 80 -38 182 -38 93 0 111 3 163 27 32 15 77 42 98 59 l40 31 68 -31 c86
-39 209 -71 277 -71 113 0 221 38 282 99 l35 35 106 0 c100 1 109 3 170 35 83
43 165 126 187 189 l17 48 58 -4 c76 -6 178 25 257 78 92 61 149 150 159 244
l5 51 87 0 c76 0 94 4 152 31 136 64 200 154 207 289 3 64 0 91 -17 135 -11
30 -17 57 -13 61 13 12 265 107 447 169 248 84 531 168 778 231 174 44 210 50
218 38 21 -33 3 -280 -32 -427 -147 -629 -700 -1188 -1526 -1541 -1309 -559
-3051 -492 -4244 164 -124 68 -356 221 -454 300 -306 245 -536 537 -659 837
-85 205 -136 523 -110 680 6 32 10 37 28 33 11 -3 143 -34 291 -70z m1615
-376 c80 -36 122 -92 135 -182 l7 -47 27 38 c71 97 159 146 266 146 133 1 234
-76 251 -190 9 -63 26 -73 66 -39 48 41 90 55 161 55 82 0 176 -44 212 -99 48
-73 54 -170 17 -289 -22 -71 -12 -80 66 -58 123 34 225 11 304 -69 58 -59 82
-118 82 -200 0 -55 -6 -81 -26 -120 -135 -261 -511 -195 -545 96 -3 29 -12 53
-20 56 -7 3 -38 -12 -68 -33 -76 -52 -138 -57 -224 -19 -100 45 -151 118 -151
218 0 46 -17 48 -85 11 -87 -49 -194 -30 -283 50 -61 56 -85 114 -88 219 -1
49 -5 92 -9 95 -3 4 -14 1 -23 -6 -116 -81 -224 -79 -312 7 -95 92 -94 228 3
319 64 62 156 78 237 41z"/>
<path d="M14691 4629 c-308 -33 -555 -226 -661 -518 -47 -128 -63 -242 -57
-406 6 -168 22 -235 87 -370 81 -167 184 -272 345 -350 130 -64 239 -88 400
-87 144 0 250 18 352 59 138 55 263 161 336 284 38 65 89 208 102 287 l7 42
-220 0 -220 0 -7 -37 c-13 -73 -47 -143 -92 -193 -56 -62 -99 -85 -187 -101
-229 -40 -395 99 -442 371 -30 172 -2 375 67 497 39 68 126 147 185 167 54 18
189 21 246 6 94 -26 176 -114 202 -216 l12 -49 222 -3 c256 -3 234 -15 206
111 -50 221 -212 387 -454 465 -124 40 -289 56 -429 41z"/>
<path d="M16370 4630 c-168 -16 -292 -64 -382 -148 -82 -77 -130 -180 -146
-314 l-8 -68 195 0 196 0 30 57 c32 61 88 105 160 124 54 15 220 6 270 -15
148 -62 127 -208 -36 -259 -30 -9 -130 -28 -224 -41 -312 -45 -467 -115 -559
-254 -54 -81 -78 -168 -79 -287 -2 -265 131 -437 392 -507 98 -26 295 -28 426
-4 351 65 534 233 585 536 7 42 10 201 8 445 -3 368 -4 382 -26 437 -77 192
-266 286 -607 301 -60 3 -148 1 -195 -3z m418 -1007 c-3 -103 -8 -137 -25
-175 -31 -68 -68 -112 -122 -147 -103 -67 -280 -81 -359 -28 -100 66 -108 235
-15 318 52 45 106 65 266 99 78 16 162 36 187 44 77 24 73 31 68 -111z"/>
<path d="M20027 4630 c-383 -43 -652 -291 -722 -665 -22 -115 -16 -366 10
-465 24 -90 93 -233 148 -305 162 -214 464 -328 781 -295 136 14 205 33 321
90 206 100 346 280 407 527 28 112 31 357 6 468 -53 236 -182 422 -365 529
-162 95 -382 139 -586 116z m258 -361 c68 -25 151 -99 188 -167 46 -85 68
-191 68 -332 1 -318 -107 -494 -329 -532 -216 -37 -386 78 -448 303 -24 86
-29 278 -11 384 30 170 119 297 240 344 74 28 216 29 292 0z"/>
<path d="M11755 4624 c-165 -24 -258 -54 -368 -121 -169 -102 -301 -287 -359
-501 -29 -107 -31 -351 -5 -466 76 -323 280 -536 580 -606 271 -62 564 -13
750 128 90 68 215 256 242 365 l7 27 -196 0 -196 0 -20 -39 c-18 -37 -71 -86
-131 -123 -80 -50 -248 -63 -360 -28 -145 44 -221 148 -244 333 l-7 57 590 0
591 0 6 43 c9 57 -10 230 -36 330 -74 290 -281 510 -543 577 -75 19 -243 32
-301 24z m180 -349 c75 -20 126 -55 165 -113 32 -49 65 -128 75 -185 l7 -37
-366 0 c-292 0 -366 3 -366 13 0 7 7 40 15 72 26 98 89 180 175 225 72 39 200
49 295 25z"/>
<path d="M8884 4605 c-95 -17 -136 -31 -215 -71 -114 -60 -215 -179 -259 -307
-44 -131 -50 -217 -50 -784 l0 -533 215 0 215 0 0 563 c0 598 1 619 48 684 11
16 44 42 73 57 42 23 68 30 138 34 118 6 190 -14 247 -72 74 -74 74 -72 74
-708 l0 -558 213 2 212 3 5 585 c6 655 1 615 80 683 55 47 109 60 227 55 112
-4 165 -26 214 -88 55 -69 59 -108 59 -625 0 -437 2 -473 19 -511 37 -81 97
-104 277 -104 l134 0 0 478 c-1 658 -10 754 -85 908 -106 217 -305 315 -640
315 -199 0 -338 -31 -449 -101 l-47 -30 -57 35 c-114 70 -272 106 -461 104
-64 0 -148 -7 -187 -14z"/>
<path d="M13518 4605 c-335 -56 -533 -249 -609 -590 -20 -94 -22 -131 -26
-602 l-5 -503 215 0 216 0 3 498 c4 488 4 498 27 559 29 79 86 144 159 180 52
25 68 28 207 33 l150 5 3 218 2 217 -132 -1 c-73 -1 -168 -7 -210 -14z"/>
<path d="M11387 2630 c-67 -26 -133 -83 -178 -153 l-39 -60 0 -999 0 -998 210
0 210 0 0 1115 0 1115 -77 0 c-52 -1 -94 -7 -126 -20z"/>
<path d="M12040 2460 l0 -190 215 0 215 0 0 190 0 190 -215 0 -215 0 0 -190z"/>
<path d="M13162 2639 c-101 -19 -213 -95 -263 -175 -21 -34 -21 -37 -16 -737
4 -616 6 -711 21 -776 59 -256 192 -407 423 -481 175 -56 425 -62 608 -15 245
64 421 244 485 497 55 219 42 566 -28 768 -78 224 -232 366 -449 414 -90 20
-241 21 -316 1 -113 -29 -217 -101 -289 -199 l-28 -39 0 376 0 377 -52 -1
c-29 -1 -72 -5 -96 -10z m647 -890 c99 -44 167 -143 197 -289 23 -114 16 -337
-14 -429 -56 -173 -181 -260 -356 -249 -219 14 -326 175 -326 488 0 228 61
390 174 459 85 53 231 62 325 20z"/>
<path d="M16525 2140 c-282 -31 -515 -189 -639 -436 -60 -120 -87 -231 -93
-379 -18 -445 203 -772 592 -877 66 -17 107 -21 240 -21 190 0 267 17 412 88
109 54 195 134 259 241 35 59 94 190 94 208 0 3 -87 6 -194 6 l-194 0 -27 -46
c-33 -57 -124 -125 -199 -148 -89 -28 -251 -20 -331 17 -73 34 -119 76 -151
139 -27 53 -54 155 -54 206 l0 32 591 0 592 0 -6 143 c-8 216 -60 375 -171
531 -155 218 -424 328 -721 296z m243 -360 c87 -39 143 -111 181 -234 11 -37
21 -72 21 -77 0 -5 -157 -9 -365 -9 -413 0 -377 -9 -351 88 37 137 138 227
286 256 53 10 181 -4 228 -24z"/>
<path d="M15355 2126 c-301 -47 -506 -214 -594 -486 -46 -138 -51 -215 -51
-727 l0 -483 209 0 209 0 4 488 c4 466 5 490 26 553 31 95 78 151 159 191 66
32 72 33 215 37 l148 3 0 219 0 219 -122 -1 c-68 -1 -159 -7 -203 -13z"/>
<path d="M12040 1245 l0 -825 215 0 215 0 0 825 0 825 -215 0 -215 0 0 -825z"/>
</g>
</svg>
