<?xml version="1.0" standalone="no"?>
<!DOCTYPE svg PUBLIC "-//W3C//DTD SVG 20010904//EN"
 "http://www.w3.org/TR/2001/REC-SVG-20010904/DTD/svg10.dtd">
<svg version="1.0" xmlns="http://www.w3.org/2000/svg"
 width="600.000000pt" height="600.000000pt" viewBox="0 0 600.000000 600.000000"
 preserveAspectRatio="xMidYMid meet">

<g transform="translate(0.000000,600.000000) scale(0.100000,-0.100000)"
fill="#000000" stroke="none">
<path d="M2560 5180 l0 -819 -87 30 c-526 184 -927 617 -1062 1147 -27 103
-51 267 -51 342 l0 60 -457 0 -456 0 6 -127 c46 -982 674 -1861 1597 -2236
106 -43 290 -100 395 -122 113 -23 115 -24 115 -46 0 -19 -18 -19 -1000 -19
l-1000 0 0 -445 0 -445 913 -1 912 -1 -80 -24 c-568 -173 -1023 -490 -1366
-954 -152 -206 -290 -477 -373 -735 -64 -198 -115 -501 -116 -677 l0 -88 455
0 455 0 0 58 c1 131 48 365 105 517 39 104 137 286 207 384 93 130 271 301
408 393 138 92 243 145 378 192 l102 35 0 -799 0 -800 440 0 440 0 0 799 0
800 88 -30 c389 -130 735 -428 926 -798 111 -216 185 -492 186 -693 l0 -58
456 0 457 0 -7 127 c-24 437 -149 839 -371 1199 -341 551 -841 932 -1480 1128
l-80 24 913 1 912 1 0 445 0 445 -1000 0 c-990 0 -1000 0 -1000 20 0 12 8 22
23 25 12 3 63 14 112 25 868 197 1594 870 1857 1720 69 220 102 407 114 636
l7 124 -456 0 -457 0 0 -55 c0 -62 -23 -229 -45 -320 -106 -452 -417 -851
-838 -1075 -80 -42 -238 -107 -286 -116 l-31 -6 0 816 0 816 -440 0 -440 0 0
-820z"/>
</g>
</svg>
